<?xml version="1.0" encoding="UTF-8"?>
<svg version="1.1" xmlns="http://www.w3.org/2000/svg" width="333" height="333">
<path d="M0 0 C0.69013184 0.1453418 1.38026367 0.29068359 2.09130859 0.44042969 C35.96782445 7.76073784 66.49876545 28.2131446 86 57 C94.78744165 70.63840013 101.28142944 84.53117278 105.75 100.125 C105.94899902 100.8166626 106.14799805 101.5083252 106.35302734 102.22094727 C109.44407877 113.62865165 110.36545236 124.96280391 110.3125 136.75 C110.31034485 137.40707947 110.3081897 138.06415894 110.30596924 138.7411499 C110.25124999 149.16912041 109.66127365 158.90246305 107 169 C106.70198486 170.17731689 106.70198486 170.17731689 106.39794922 171.37841797 C103.29949261 183.37536344 99.01087669 194.18221002 93 205 C92.41089844 206.09054688 91.82179688 207.18109375 91.21484375 208.3046875 C87.41988268 215.09931029 83.06948537 221.10458723 78 227 C76.96746094 228.21623047 76.96746094 228.21623047 75.9140625 229.45703125 C61.73649668 245.70749026 45.53426197 257.04588104 26 266 C25.10796875 266.40992188 24.2159375 266.81984375 23.296875 267.2421875 C-8.37868371 280.77247583 -46.3663616 279.77755703 -78.17333984 267.13623047 C-104.05019042 256.20993442 -126.94048359 237.79174551 -142 214 C-142.69867188 212.93910156 -143.39734375 211.87820312 -144.1171875 210.78515625 C-150.99613444 200.07736149 -155.54017494 188.98020687 -159.25 176.875 C-159.49637207 176.07634521 -159.74274414 175.27769043 -159.99658203 174.45483398 C-163.62158133 162.14060866 -164.40915773 150.18443702 -164.375 137.4375 C-164.37412384 136.63908691 -164.37324768 135.84067383 -164.37234497 135.01806641 C-164.32854199 122.91935085 -163.697796 111.60180219 -160 100 C-159.75330566 99.19256348 -159.50661133 98.38512695 -159.25244141 97.55322266 C-152.38999906 75.42405773 -142.07927692 56.75487679 -126 40 C-125.18144531 39.11828125 -124.36289063 38.2365625 -123.51953125 37.328125 C-112.52743001 25.83269268 -100.2078217 17.45447067 -85.79248047 10.82714844 C-84.18620543 10.08592536 -82.59399038 9.31440991 -81.00390625 8.5390625 C-56.81861535 -3.04460368 -26.13828338 -5.72811285 0 0 Z M-115.26953125 56.00390625 C-117.21834771 57.81156998 -117.21834771 57.81156998 -117 60 C-117.66 60 -118.32 60 -119 60 C-124.03461219 66.09862817 -128.10925142 73.13141592 -132 80 C-132.42023438 80.7321875 -132.84046875 81.464375 -133.2734375 82.21875 C-136.18446616 87.63289248 -138.23441066 93.2508683 -140.1875 99.0625 C-140.43757813 99.80628906 -140.68765625 100.55007812 -140.9453125 101.31640625 C-151.11093101 132.52760254 -145.97375597 165.11855691 -132.125 194.25 C-129.00528183 200.30306357 -125.19094688 205.64743198 -121 211 C-120.2059375 212.02222656 -119.411875 213.04445312 -118.59375 214.09765625 C-114.62105606 219.65026237 -114.62105606 219.65026237 -109 223 C-109 223.66 -109 224.32 -109 225 C-108.34 225 -107.68 225 -107 225 C-107 225.66 -107 226.32 -107 227 C-91.27797469 242.46053632 -70.20387091 251.37098593 -49 256 C-48.42950928 256.1750708 -47.85901855 256.3501416 -47.27124023 256.53051758 C-43.97359909 257.21216478 -40.68601364 257.20355623 -37.33203125 257.23828125 C-36.20241219 257.25038887 -36.20241219 257.25038887 -35.04997253 257.26274109 C-33.45041178 257.27656106 -31.85082178 257.28729254 -30.2512207 257.29516602 C-28.64859091 257.30655722 -27.04599502 257.3267984 -25.44360352 257.35668945 C-13.69452304 257.5753736 -3.30937472 256.16629035 8 253 C9.06968018 252.71970947 10.13936035 252.43941895 11.24145508 252.15063477 C24.95329325 248.43762102 38.51319431 239.38852537 49 230 C49.94875 229.19304687 50.8975 228.38609375 51.875 227.5546875 C75.34928752 207.24598057 89.46178692 177.89726046 92 147 C92.69503348 134.33795036 91.87710868 122.34381567 89 110 C88.75056641 108.89809326 88.75056641 108.89809326 88.49609375 107.77392578 C83.87378146 87.87658335 73.58448279 65.8124862 58 52 C57.34 52 56.68 52 56 52 C56 51.34 56 50.68 56 50 C55.34 50 54.68 50 54 50 C54 49.34 54 48.68 54 48 C53.34 48 52.68 48 52 48 C52 47.34 52 46.68 52 46 C0.38494888 1.65717258 -68.75039444 9.78059861 -115.26953125 56.00390625 Z " fill="#00C9C1" transform="translate(195,28)"/>
<path d="M0 0 C-4.35645531 5.22368125 -8.95760225 10.05233196 -13.8125 14.8125 C-15.15462862 16.12918543 -16.49458677 17.4480881 -17.83203125 18.76953125 C-18.70952026 19.62961792 -18.70952026 19.62961792 -19.60473633 20.50708008 C-21.10215975 21.96766261 -21.10215975 21.96766261 -22 24 C-22.66 24 -23.32 24 -24 24 C-24.27199219 24.72445312 -24.54398437 25.44890625 -24.82421875 26.1953125 C-25.96768939 28.92292685 -27.31052141 31.3307513 -28.8125 33.875 C-38.73056135 51.79071376 -40.47806237 71.34471223 -35 91 C-33.60650622 94.8395201 -31.93692548 98.40678313 -30 102 C-29.54625 102.85207031 -29.0925 103.70414062 -28.625 104.58203125 C-19.78080096 120.22761162 -5.94817897 130.39254312 11 136 C31.11981835 141.38218548 49.73901391 139.16639775 67.9375 128.75 C71.26041929 126.74027712 74.53375356 124.6615189 77.79296875 122.55078125 C78.43049072 122.13795898 79.0680127 121.72513672 79.72485352 121.29980469 C80.97265292 120.48728414 82.21677725 119.66908604 83.45678711 118.84472656 C87.7851537 116 87.7851537 116 90 116 C90.83174481 123.02147359 88.03433976 127.62105998 84.625 133.625 C84.08133789 134.59904785 83.53767578 135.5730957 82.97753906 136.57666016 C78.58506791 144.293614 73.84244952 151.30719396 68 158 C67.3709375 158.72832031 66.741875 159.45664063 66.09375 160.20703125 C51.88905675 175.46503862 29.50264682 187.07040194 8.52172852 188.12451172 C-18.05525384 188.86269755 -39.92533565 184.04699483 -60.7734375 166.83203125 C-62.96760894 164.98028868 -62.96760894 164.98028868 -65.2890625 163.38671875 C-66.13597656 162.70029297 -66.13597656 162.70029297 -67 162 C-67 161.34 -67 160.68 -67 160 C-67.66 160 -68.32 160 -69 160 C-70.67533174 158.07758696 -72.22202747 156.16013537 -73.75 154.125 C-74.42434082 153.23035034 -74.42434082 153.23035034 -75.11230469 152.31762695 C-90.585949 131.53849445 -97.08243292 106.66155496 -93.49609375 80.88671875 C-90.57381937 64.8058603 -84.19432315 47.33032212 -73 35 C-72.34 35 -71.68 35 -71 35 C-70.73832031 34.41605469 -70.47664063 33.83210938 -70.20703125 33.23046875 C-62.58680043 19.14907135 -42.87855265 9.90426035 -28.22265625 5.41015625 C-26.19364984 4.80876924 -24.16139948 4.22220333 -22.12475586 3.6472168 C-20.03544779 3.05482982 -17.95448805 2.43775775 -15.87304688 1.81835938 C-14.53167437 1.43081978 -13.18989122 1.04469806 -11.84765625 0.66015625 C-10.0534021 0.14400757 -10.0534021 0.14400757 -8.22290039 -0.38256836 C-5.03381867 -0.99352114 -3.08610644 -0.89925076 0 0 Z " fill="#00D0C7" transform="translate(168,68)"/>
</svg>
